<?xml version="1.0" standalone="no"?>
<!DOCTYPE svg PUBLIC "-//W3C//DTD SVG 20010904//EN" "http://www.w3.org/TR/2001/REC-SVG-20010904/DTD/svg10.dtd">
<svg version="1.0" xmlns="http://www.w3.org/2000/svg" width="384.000000pt" height="384.000000pt"
    viewBox="0 0 384.000000 384.000000" preserveAspectRatio="xMidYMid meet">

    <g transform="translate(0.000000,384.000000) scale(0.100000,-0.100000)" fill="#334155" stroke="none">
        <path d="M1666 3804 c-647 -88 -1198 -486 -1477 -1069 -234 -487 -246 -1064
-35 -1557 286 -666 899 -1102 1626 -1158 431 -32 895 96 1250 348 124 88 365
328 452 452 128 180 242 431 293 642 214 879 -209 1774 -1025 2167 -336 162
-723 225 -1084 175z m416 -698 c450 -114 785 -444 905 -893 24 -90 27 -115 27
-293 1 -181 -1 -202 -26 -297 -82 -307 -261 -556 -525 -730 -176 -116 -360
-177 -600 -198 l-73 -7 0 251 0 251 -245 0 -245 0 0 240 0 240 -242 2 -243 3
0 240 0 240 243 3 242 2 0 240 0 240 245 0 245 0 0 252 0 251 99 -6 c54 -4
141 -18 193 -31z" />
        <path d="M1790 2402 l0 -242 -242 -2 -243 -3 -3 -237 -2 -238 245 0 245 0 0
-246 0 -245 58 6 c272 32 481 172 595 400 57 113 72 182 71 330 0 113 -4 140
-27 210 -38 115 -91 199 -182 290 -44 44 -109 97 -145 118 -83 48 -202 86
-296 94 l-74 6 0 -241z" />
    </g>
</svg>